<svg width="70" height="70" viewBox="0 0 70 70" fill="none" xmlns="http://www.w3.org/2000/svg">
<g clip-path="url(#clip0_0_267)">
<path d="M67.4899 9.65719C66.4686 8.63411 64.8115 8.63234 63.7901 9.65285L32.4001 40.96L21.0747 28.6595C20.0961 27.5972 18.4415 27.5283 17.3775 28.5068C16.3142 29.4854 16.2462 31.1408 17.2248 32.204L30.3949 46.5071C30.8772 47.0313 31.5522 47.3357 32.264 47.3505C32.2831 47.3513 32.3015 47.3513 32.3198 47.3513C33.0115 47.3513 33.6769 47.0766 34.1671 46.5882L67.4848 13.3578C68.5087 12.3374 68.5104 10.6803 67.4899 9.65719Z" fill="white"/>
<path d="M66.8584 32.2625C65.4132 32.2625 64.2419 33.4338 64.2419 34.8791C64.2419 51.1351 51.0179 64.3591 34.762 64.3591C18.507 64.3591 5.28197 51.1351 5.28197 34.8791C5.28197 18.6242 18.507 5.39915 34.762 5.39915C36.2072 5.39915 37.3786 4.22786 37.3786 2.78265C37.3786 1.33731 36.2072 0.166016 34.762 0.166016C15.6209 0.166016 0.0488281 15.7381 0.0488281 34.8791C0.0488281 54.0194 15.6209 69.5923 34.762 69.5923C53.9022 69.5923 69.4751 54.0194 69.4751 34.8791C69.4751 33.4339 68.3038 32.2625 66.8584 32.2625Z" fill="white"/>
</g>
<defs>
<clipPath id="clip0_0_267">
<rect width="69.4262" height="69.4262" fill="white" transform="translate(0.0488281 0.166016)"/>
</clipPath>
</defs>
</svg>
