<svg xmlns="http://www.w3.org/2000/svg" xmlns:xlink="http://www.w3.org/1999/xlink" version="1.1" width="1000" height="1000" viewBox="0 0 1000 1000" xml:space="preserve">
<desc>Created with Fabric.js 3.5.0</desc>
<defs>
</defs>
<rect x="0" y="0" width="100%" height="100%" fill="#ffffff"/>
<g transform="matrix(1.2871 0 0 1.2871 672.1747 275.4129)" id="561564">
<path style="stroke: none; stroke-width: 1; stroke-dasharray: none; stroke-linecap: butt; stroke-dashoffset: 0; stroke-linejoin: miter; stroke-miterlimit: 4; is-custom-font: none; font-file-url: none; fill: rgb(0,0,0); fill-rule: nonzero; opacity: 1;" vector-effect="non-scaling-stroke" transform=" translate(-199.6658, -160.111)" d="M 388.917 0.221924 H 10.4225 C 3.58309 0.221924 -1.23802 6.93402 0.946059 13.4153 L 47.6029 151.87 C 48.7723 155.34 51.745 157.894 55.3518 158.526 L 205.222 184.811 C 209.304 185.527 212.522 188.687 213.311 192.756 L 236.429 311.905 C 237.341 316.606 241.458 320 246.246 320 H 266.034 C 267.97 320 269.864 319.438 271.486 318.383 L 394.37 238.458 C 397.206 236.613 398.917 233.459 398.917 230.075 V 10.2219 C 398.917 4.69908 394.44 0.221924 388.917 0.221924 Z" stroke-linecap="round"/>
</g>
<g transform="matrix(1.3894 0 0 1.4422 880.5086 501.6601)" id="254176">
<g style="" vector-effect="non-scaling-stroke">
		<g transform="matrix(1 0 0 1 7.3936 -6.88)" clip-path="url(#CLIPPATH_9)">
<clipPath id="CLIPPATH_9">
	<rect transform="matrix(1 0 0 1 -7.6317 6.7591)" id="clip0_0_267" x="-34.7131" y="-34.7131" rx="0" ry="0" width="69.4262" height="69.4262"/>
</clipPath>
<path style="stroke: none; stroke-width: 1; stroke-dasharray: none; stroke-linecap: butt; stroke-dashoffset: 0; stroke-linejoin: miter; stroke-miterlimit: 4; is-custom-font: none; font-file-url: none; fill: rgb(255,255,255); fill-rule: nonzero; opacity: 1;" transform=" translate(-42.3936, -28.12)" d="M 67.4899 9.65719 C 66.4686 8.63411 64.8115 8.63234 63.7901 9.65285 L 32.4001 40.96 L 21.0747 28.6595 C 20.0961 27.5972 18.4415 27.5283 17.3775 28.5068 C 16.3142 29.4854 16.2462 31.1408 17.2248 32.204 L 30.3949 46.5071 C 30.8772 47.0313 31.5522 47.3357 32.264 47.3505 C 32.2831 47.3513 32.3015 47.3513 32.3198 47.3513 C 33.0115 47.3513 33.6769 47.0766 34.1671 46.5882 L 67.4848 13.3578 C 68.5087 12.3374 68.5104 10.6803 67.4899 9.65719 Z" stroke-linecap="round"/>
</g>
		<g transform="matrix(1 0 0 1 -0.2381 -0.1209)" clip-path="url(#CLIPPATH_10)">
<clipPath id="CLIPPATH_10">
	<rect transform="matrix(1 0 0 1 0 0)" id="clip0_0_267" x="-34.7131" y="-34.7131" rx="0" ry="0" width="69.4262" height="69.4262"/>
</clipPath>
<path style="stroke: none; stroke-width: 1; stroke-dasharray: none; stroke-linecap: butt; stroke-dashoffset: 0; stroke-linejoin: miter; stroke-miterlimit: 4; is-custom-font: none; font-file-url: none; fill: rgb(255,255,255); fill-rule: nonzero; opacity: 1;" transform=" translate(-34.762, -34.8792)" d="M 66.8584 32.2625 C 65.4132 32.2625 64.2419 33.4338 64.2419 34.8791 C 64.2419 51.1351 51.0179 64.3591 34.762 64.3591 C 18.507 64.3591 5.28197 51.1351 5.28197 34.8791 C 5.28197 18.6242 18.507 5.39915 34.762 5.39915 C 36.2072 5.39915 37.3786 4.22786 37.3786 2.78265 C 37.3786 1.33731 36.2072 0.166016 34.762 0.166016 C 15.6209 0.166016 0.0488281 15.7381 0.0488281 34.8791 C 0.0488281 54.0194 15.6209 69.5923 34.762 69.5923 C 53.9022 69.5923 69.4751 54.0194 69.4751 34.8791 C 69.4751 33.4339 68.3038 32.2625 66.8584 32.2625 Z" stroke-linecap="round"/>
</g>
</g>
</g>
<g transform="matrix(1 0 0 1 875.5004 482.7288)" id="520867">
<path style="stroke: none; stroke-width: 1; stroke-dasharray: none; stroke-linecap: butt; stroke-dashoffset: 0; stroke-linejoin: miter; stroke-miterlimit: 4; is-custom-font: none; font-file-url: none; fill: rgb(253,84,68); fill-rule: nonzero; opacity: 1;" vector-effect="non-scaling-stroke" transform=" translate(-53.7776, -77.2881)" d="M 1.09168 143.974 L 0.639434 66.6401 C 0.619489 63.2295 2.33915 60.044 5.20143 58.1894 L 91.4785 2.28532 C 98.1318 -2.02575 106.916 2.74969 106.916 10.6776 V 143.915 C 106.916 149.438 102.439 153.915 96.9164 153.915 H 11.0915 C 5.59148 153.915 1.12384 149.474 1.09168 143.974 Z" stroke-linecap="round"/>
</g>
<g transform="matrix(1 0 0 1 510.3627 403.9603)" id="806632">
<path style="stroke: none; stroke-width: 1; stroke-dasharray: none; stroke-linecap: butt; stroke-dashoffset: 0; stroke-linejoin: miter; stroke-miterlimit: 4; is-custom-font: none; font-file-url: none; fill: rgb(0,0,0); fill-rule: nonzero; opacity: 1;" vector-effect="non-scaling-stroke" transform=" translate(-181.2945, -155.6045)" d="M 10.6779 0.208984 H 96.0452 C 100.319 0.208984 104.121 2.9251 105.506 6.96834 L 121.593 53.9329 C 122.77 57.3689 125.718 59.8965 129.293 60.536 L 276.562 86.8777 C 280.606 87.6011 283.796 90.7243 284.605 94.7523 L 308.887 215.644 C 309.825 220.314 313.928 223.675 318.691 223.675 H 351.911 C 357.434 223.675 361.911 228.152 361.911 233.675 V 301 C 361.911 306.523 357.434 311 351.911 311 H 10.6779 C 5.15507 311 0.677917 306.523 0.677917 301 V 10.209 C 0.677917 4.68614 5.15507 0.208984 10.6779 0.208984 Z" stroke-linecap="round"/>
</g>
</svg>